<svg width="20" height="16" viewBox="0 0 20 16" fill="none" xmlns="http://www.w3.org/2000/svg">
<path d="M17.6262 0H2.37383C1.06491 0 0 1.07717 0 2.40115V13.5988C0 14.9228 1.06491 16 2.37383 16H17.6262C18.9351 16 20 14.9228 20 13.5988V2.40115C20 1.07717 18.9351 0 17.6262 0ZM17.6262 13.8802H2.37383C2.18143 13.8802 2.01268 13.7487 2.01268 13.5988V3.88187L8.91094 10.0161C9.05236 10.1419 9.2322 10.2112 9.41738 10.2112L10.5824 10.2112C10.7675 10.2112 10.9474 10.1419 11.0889 10.0161L17.9875 3.88165V13.599C17.9874 13.7487 17.8186 13.8802 17.6262 13.8802ZM10 8.10632L3.29062 2.11983H16.7094L10 8.10632Z" fill="white"/>
</svg>
