<svg width="192" height="84" viewBox="0 0 192 84" fill="none" xmlns="http://www.w3.org/2000/svg">
<path d="M56.8534 48.1763C58.0076 49.1958 59.5246 49.8206 61.1736 49.8206H79.7076C83.2693 49.8206 86.2044 46.9267 86.2044 43.3423V36.5022L84.1597 36.4036C79.048 36.1405 74.7937 32.6876 73.5735 27.8206C73.3427 26.8669 73.2108 25.8804 73.2108 24.8938C73.2108 23.9073 73.3427 22.9536 73.5735 21.9671C74.7937 17.1001 79.015 13.6472 84.1597 13.3841L86.2044 13.2855V6.47832C86.2044 2.92675 83.3022 0 79.7076 0H61.1736C59.5246 0 58.0076 0.624813 56.8534 1.64424C55.6991 0.624813 54.1821 0 52.5332 0H7.08859C3.49392 0 0.591797 2.89387 0.591797 6.47832V43.3751C0.591797 46.9267 3.49392 49.8535 7.08859 49.8535H52.5332C54.1821 49.8535 55.6991 49.2287 56.8534 48.1763ZM4.912 43.3751V6.47832C4.912 5.29446 5.86838 4.3408 7.05561 4.3408H52.5002C53.6874 4.3408 54.6438 5.29446 54.6438 6.47832V10.7862H58.964V6.47832C58.964 5.29446 59.9204 4.3408 61.1076 4.3408H79.6416C80.8288 4.3408 81.7852 5.29446 81.7852 6.47832V9.3393C75.6842 10.4245 70.7704 14.8968 69.2863 20.9805C68.9565 22.2631 68.7916 23.6113 68.7916 24.9267C68.7916 26.2421 68.9565 27.5904 69.2863 28.8729C70.8033 34.9566 75.6842 39.429 81.7852 40.5142V43.3751C81.7852 44.559 80.8288 45.5127 79.6416 45.5127H61.1076C59.9204 45.5127 58.964 44.559 58.964 43.3751V39.0672H54.6768V43.3751C54.6768 44.559 53.7204 45.5127 52.5332 45.5127H7.08859C5.90136 45.5127 4.912 44.559 4.912 43.3751Z" fill="url(#paint0_linear)"/>
<path d="M58.997 26.9327H54.6768V35.0224H58.997V26.9327Z" fill="url(#paint1_linear)"/>
<path d="M58.997 14.8311H54.6768V22.9208H58.997V14.8311Z" fill="url(#paint2_linear)"/>
<path d="M36.4062 13.6472C33.4711 13.6472 30.8987 15.1928 29.4806 17.5276C28.0626 15.1928 25.4902 13.6472 22.5551 13.6472C18.07 13.6472 14.4424 17.2646 14.4424 21.7369C14.4424 24.1704 15.5307 26.3408 17.2456 27.8535L28.7551 38.5411C28.953 38.7384 29.2168 38.837 29.4806 38.837C29.7445 38.837 30.0413 38.7384 30.2062 38.5411L41.7157 27.8535C43.4306 26.3737 44.5189 24.2033 44.5189 21.7369C44.5189 17.2646 40.8913 13.6472 36.4062 13.6472Z" fill="url(#paint3_linear)"/>
<path d="M107.441 24.8938C107.441 23.3154 107.145 21.8356 106.518 20.4215C105.924 19.0403 105.1 17.8236 104.045 16.7713C102.989 15.7518 101.769 14.9297 100.384 14.3378C98.999 13.7459 97.4819 13.417 95.899 13.417C94.316 13.417 92.832 13.713 91.4139 14.3378C90.0288 14.9297 88.8086 15.7518 87.7532 16.7713C86.6979 17.7907 85.8735 19.0075 85.2798 20.4215C84.6862 21.8027 84.3564 23.3154 84.3564 24.8938C84.3564 26.5052 84.6532 27.985 85.2798 29.3991C85.8735 30.7802 86.6979 31.997 87.7532 33.0493C88.8086 34.0687 90.0288 34.8908 91.4139 35.4828C92.799 36.0747 94.316 36.4035 95.899 36.4035C97.4819 36.4035 98.966 36.1076 100.384 35.4828C101.769 34.8908 102.989 34.0687 104.045 33.0493C105.1 32.0299 105.924 30.8131 106.518 29.3991C107.145 28.0179 107.441 26.5052 107.441 24.8938ZM101.802 27.3602C101.472 28.1494 101.011 28.8071 100.45 29.3991C99.8894 29.991 99.1968 30.4185 98.4053 30.7802C97.6139 31.1091 96.7894 31.2735 95.9319 31.2735C95.0745 31.2735 94.2171 31.1091 93.4585 30.7802C92.6671 30.4514 92.0075 29.991 91.4139 29.3991C90.8532 28.8071 90.3915 28.1494 90.0617 27.3602C89.732 26.571 89.5671 25.7488 89.5671 24.8938C89.5671 24.0388 89.732 23.2167 90.0617 22.4275C90.3915 21.6711 90.8532 20.9805 91.4139 20.4215C91.9745 19.8296 92.6671 19.4021 93.4585 19.0403C94.25 18.7115 95.0745 18.5471 95.9319 18.5471C96.7894 18.5471 97.6468 18.7115 98.4053 19.0403C99.1968 19.3692 99.8564 19.8296 100.45 20.4215C101.011 21.0134 101.472 21.6711 101.802 22.4275C102.132 23.1838 102.297 24.006 102.297 24.8938C102.297 25.7817 102.165 26.6039 101.802 27.3602Z" fill="url(#paint4_linear)"/>
<path d="M112.521 33.8385C113.312 34.6278 114.236 35.2526 115.291 35.713C116.346 36.1734 117.468 36.4036 118.688 36.4036C119.908 36.4036 121.029 36.1734 122.085 35.713C123.14 35.2526 124.063 34.6278 124.855 33.8385C125.646 33.0493 126.273 32.1285 126.735 31.0762C127.196 30.0239 127.427 28.9058 127.427 27.6891V13.4499H122.283V27.6562C122.283 28.1495 122.184 28.6098 121.986 29.0702C121.788 29.4977 121.524 29.8924 121.194 30.2212C120.864 30.5501 120.469 30.8131 120.04 31.0104C119.611 31.2078 119.117 31.3064 118.622 31.3064C118.127 31.3064 117.666 31.2078 117.237 31.0104C116.808 30.8131 116.412 30.5501 116.083 30.2212C115.753 29.8924 115.489 29.4977 115.291 29.0702C115.093 28.6427 114.994 28.1823 114.994 27.6562V13.4499H109.85V27.6891C109.85 28.9058 110.08 30.0239 110.542 31.0762C111.103 32.1285 111.729 33.0493 112.521 33.8385Z" fill="url(#paint5_linear)"/>
<path d="M135.046 30.2541H137.585C138.773 30.2541 139.861 30.0239 140.883 29.5964C141.906 29.1689 142.796 28.5441 143.588 27.7877C144.346 27.0313 144.973 26.1106 145.401 25.0911C145.83 24.0717 146.061 22.9865 146.061 21.8027C146.061 20.6517 145.83 19.5665 145.401 18.547C144.973 17.5276 144.346 16.6397 143.588 15.8505C142.829 15.0941 141.906 14.4693 140.883 14.0418C139.861 13.6143 138.773 13.3841 137.585 13.3841H129.901V36.3049H135.046V30.2541ZM135.046 18.5799H137.585C138.047 18.5799 138.476 18.6786 138.872 18.843C139.267 19.0074 139.63 19.2705 139.927 19.5665C140.224 19.8624 140.455 20.2242 140.652 20.5859C140.817 20.9805 140.916 21.408 140.916 21.8684C140.916 22.3288 140.817 22.7563 140.652 23.1509C140.488 23.5456 140.224 23.9073 139.927 24.2032C139.63 24.4992 139.267 24.7294 138.872 24.9267C138.476 25.0911 138.047 25.1898 137.585 25.1898H135.046V18.5799Z" fill="url(#paint6_linear)"/>
<path d="M151.898 33.0164C152.953 34.0358 154.173 34.8579 155.558 35.4499C156.944 36.0418 158.461 36.3706 160.044 36.3706C161.626 36.3706 163.111 36.0747 164.529 35.4499C165.914 34.8579 167.134 34.0358 168.189 33.0164C169.245 31.997 170.069 30.7802 170.663 29.3662C171.256 27.985 171.586 26.4723 171.586 24.8609C171.586 23.2825 171.289 21.8027 170.663 20.3886C170.069 19.0074 169.245 17.7907 168.189 16.7384C167.134 15.719 165.914 14.8968 164.529 14.3049C163.143 13.713 161.626 13.3841 160.044 13.3841C158.461 13.3841 156.976 13.6801 155.558 14.3049C154.173 14.8968 152.953 15.719 151.898 16.7384C150.842 17.7578 150.018 18.9746 149.424 20.3886C148.831 21.7698 148.501 23.2825 148.501 24.8609C148.501 26.4723 148.798 27.9521 149.424 29.3662C150.051 30.7802 150.875 31.997 151.898 33.0164ZM154.173 22.4604C154.503 21.704 154.965 21.0134 155.525 20.4544C156.086 19.8624 156.779 19.4349 157.57 19.0732C158.362 18.7444 159.186 18.5799 160.044 18.5799C160.901 18.5799 161.758 18.7444 162.517 19.0732C163.308 19.4021 163.968 19.8624 164.562 20.4544C165.122 21.0463 165.584 21.704 165.914 22.4604C166.243 23.2167 166.408 24.0388 166.408 24.9267C166.408 25.8146 166.243 26.6038 165.914 27.3931C165.584 28.1823 165.122 28.84 164.562 29.4319C164.001 30.0239 163.308 30.4514 162.517 30.8131C161.725 31.142 160.901 31.3064 160.044 31.3064C159.186 31.3064 158.329 31.142 157.57 30.8131C156.779 30.4843 156.119 30.0239 155.525 29.4319C154.965 28.84 154.503 28.1823 154.173 27.3931C153.844 26.6038 153.679 25.7817 153.679 24.9267C153.679 24.0717 153.844 23.2167 154.173 22.4604Z" fill="url(#paint7_linear)"/>
<path d="M186.854 13.4499V26.571L179.533 13.4499H174.059V36.3707H179.203V23.2825L186.525 36.3707H191.999V13.4499H186.854Z" fill="url(#paint8_linear)"/>
<path d="M48.2132 60.8699L44.4866 72.2481L40.8589 60.8699H35.4834L40.9249 77.8385H42.6727L40.727 83.8235H46.1025L53.5557 60.8699H48.2132Z" fill="url(#paint9_linear)"/>
<path d="M72.5838 64.257C71.5284 63.2376 70.3082 62.4155 68.9231 61.8235C67.538 61.2316 66.021 60.9028 64.438 60.9028C62.8551 60.9028 61.371 61.1987 59.9529 61.8235C58.5678 62.4155 57.3476 63.2376 56.2923 64.257C55.237 65.2765 54.4125 66.4932 53.8189 67.9073C53.2253 69.2884 52.8955 70.8011 52.8955 72.3796C52.8955 73.991 53.1923 75.4708 53.8189 76.8848C54.4125 78.266 55.237 79.4827 56.2923 80.535C57.3476 81.5545 58.5678 82.3766 59.9529 82.9685C61.338 83.5605 62.8551 83.8893 64.438 83.8893C66.021 83.8893 67.505 83.5933 68.9231 82.9685C70.3082 82.3766 71.5284 81.5545 72.5838 80.535C73.6391 79.5156 74.4635 78.2989 75.0572 76.8848C75.6508 75.5037 75.9806 73.991 75.9806 72.3796C75.9806 70.8011 75.6838 69.3213 75.0572 67.9073C74.4635 66.4932 73.6391 65.2765 72.5838 64.257ZM70.3412 74.8131C70.0114 75.6023 69.5497 76.26 68.9891 76.8519C68.4284 77.4439 67.7359 77.8714 66.9444 78.2331C66.1529 78.562 65.3285 78.7264 64.471 78.7264C63.6136 78.7264 62.7561 78.562 61.9976 78.2331C61.2061 77.9043 60.5466 77.4439 59.9529 76.8519C59.3923 76.26 58.9306 75.6023 58.6008 74.8131C58.271 74.0238 58.1061 73.2017 58.1061 72.3467C58.1061 71.4917 58.271 70.6696 58.6008 69.8803C58.9306 69.124 59.3923 68.4334 59.9529 67.8744C60.5136 67.2824 61.2061 66.8549 61.9976 66.4932C62.7891 66.1644 63.6136 65.9999 64.471 65.9999C65.3285 65.9999 66.1859 66.1644 66.9444 66.4932C67.7359 66.8221 68.3955 67.2824 68.9891 67.8744C69.5497 68.4663 70.0114 69.124 70.3412 69.8803C70.671 70.6367 70.8359 71.4588 70.8359 72.3467C70.8359 73.2346 70.671 74.0567 70.3412 74.8131Z" fill="url(#paint10_linear)"/>
<path d="M90.8207 75.109C90.8207 75.6023 90.7217 76.0627 90.5238 76.5231C90.326 76.9506 90.0621 77.3452 89.7324 77.6741C89.4026 78.0029 89.0068 78.266 88.5781 78.4633C88.1494 78.6606 87.6547 78.7593 87.16 78.7593C86.6653 78.7593 86.2036 78.6606 85.7749 78.4633C85.3462 78.266 84.9505 78.0029 84.6207 77.6741C84.2909 77.3452 84.027 76.9506 83.8292 76.5231C83.6313 76.0956 83.5324 75.6352 83.5324 75.109V60.9028H78.3877V75.1419C78.3877 76.3587 78.6185 77.4767 79.0802 78.5291C79.542 79.5814 80.1685 80.5022 80.96 81.2914C81.7515 82.0806 82.6749 82.7054 83.7302 83.1658C84.7856 83.6262 85.9068 83.8564 87.127 83.8564C88.3472 83.8564 89.4685 83.6262 90.5238 83.1658C91.5792 82.7054 92.5026 82.0806 93.2941 81.2914C94.0855 80.5022 94.7121 79.5814 95.1738 78.5291C95.6355 77.4767 95.8664 76.3587 95.8664 75.1419V60.9028H90.7217V75.109H90.8207Z" fill="url(#paint11_linear)"/>
<path d="M130.494 60.9028L126.537 77.7398L122.58 61.0014L122.613 60.9028H117.303L117.336 61.0014L113.379 77.7398L109.388 60.9028H104.145L109.553 83.8235H117.171L119.974 72.1494L122.712 83.8235H130.363L135.771 60.9028H130.494Z" fill="url(#paint12_linear)"/>
<path d="M139.927 60.8699L134.519 83.8235H139.762L140.356 81.2585H147.116L147.743 83.8235H152.987L147.545 60.8699H139.927ZM141.576 76.1614L143.72 66.9536L145.896 76.1614H141.576Z" fill="url(#paint13_linear)"/>
<path d="M168.321 74.0238L161 60.9028H155.525V83.8235H160.637V70.7354L167.958 83.8235H173.433V60.9028H168.321V74.0238Z" fill="url(#paint14_linear)"/>
<path d="M175.906 65.967H181.381V83.8235H186.525V65.967H192V60.837H175.906V65.967Z" fill="url(#paint15_linear)"/>
<defs>
<linearGradient id="paint0_linear" x1="-2.98926" y1="4.63394" x2="187.154" y2="88.2838" gradientUnits="userSpaceOnUse">
<stop stop-color="#FC9A30"/>
<stop offset="0.73" stop-color="#F76016"/>
</linearGradient>
<linearGradient id="paint1_linear" x1="-3.05138" y1="4.77514" x2="187.092" y2="88.425" gradientUnits="userSpaceOnUse">
<stop stop-color="#FC9A30"/>
<stop offset="0.73" stop-color="#F76016"/>
</linearGradient>
<linearGradient id="paint2_linear" x1="1.41887" y1="-5.3862" x2="191.562" y2="78.2637" gradientUnits="userSpaceOnUse">
<stop stop-color="#FC9A30"/>
<stop offset="0.73" stop-color="#F76016"/>
</linearGradient>
<linearGradient id="paint3_linear" x1="-5.04094" y1="9.29655" x2="185.103" y2="92.9464" gradientUnits="userSpaceOnUse">
<stop stop-color="#FC9A30"/>
<stop offset="0.73" stop-color="#F76016"/>
</linearGradient>
<linearGradient id="paint4_linear" x1="5.4905" y1="-14.6437" x2="195.634" y2="69.0061" gradientUnits="userSpaceOnUse">
<stop stop-color="#FC9A30"/>
<stop offset="0.73" stop-color="#F76016"/>
</linearGradient>
<linearGradient id="paint5_linear" x1="9.72282" y1="-24.2628" x2="199.866" y2="59.3871" gradientUnits="userSpaceOnUse">
<stop stop-color="#FC9A30"/>
<stop offset="0.73" stop-color="#F76016"/>
</linearGradient>
<linearGradient id="paint6_linear" x1="11.7408" y1="-28.8479" x2="201.884" y2="54.8019" gradientUnits="userSpaceOnUse">
<stop stop-color="#FC9A30"/>
<stop offset="0.73" stop-color="#F76016"/>
</linearGradient>
<linearGradient id="paint7_linear" x1="15.8387" y1="-38.1637" x2="205.982" y2="45.4861" gradientUnits="userSpaceOnUse">
<stop stop-color="#FC9A30"/>
<stop offset="0.73" stop-color="#F76016"/>
</linearGradient>
<linearGradient id="paint8_linear" x1="19.547" y1="-46.5951" x2="209.691" y2="37.0549" gradientUnits="userSpaceOnUse">
<stop stop-color="#FC9A30"/>
<stop offset="0.73" stop-color="#F76016"/>
</linearGradient>
<linearGradient id="paint9_linear" x1="-19.8827" y1="43.0347" x2="170.261" y2="126.685" gradientUnits="userSpaceOnUse">
<stop stop-color="#FC9A30"/>
<stop offset="0.73" stop-color="#F76016"/>
</linearGradient>
<linearGradient id="paint10_linear" x1="-17.0965" y1="36.7" x2="173.047" y2="120.35" gradientUnits="userSpaceOnUse">
<stop stop-color="#FC9A30"/>
<stop offset="0.73" stop-color="#F76016"/>
</linearGradient>
<linearGradient id="paint11_linear" x1="-12.8651" y1="27.0809" x2="177.278" y2="110.731" gradientUnits="userSpaceOnUse">
<stop stop-color="#FC9A30"/>
<stop offset="0.73" stop-color="#F76016"/>
</linearGradient>
<linearGradient id="paint12_linear" x1="-7.70343" y1="15.3492" x2="182.44" y2="98.9991" gradientUnits="userSpaceOnUse">
<stop stop-color="#FC9A30"/>
<stop offset="0.73" stop-color="#F76016"/>
</linearGradient>
<linearGradient id="paint13_linear" x1="-4.7303" y1="8.5925" x2="185.413" y2="92.2424" gradientUnits="userSpaceOnUse">
<stop stop-color="#FC9A30"/>
<stop offset="0.73" stop-color="#F76016"/>
</linearGradient>
<linearGradient id="paint14_linear" x1="-0.954157" y1="0.007793" x2="189.189" y2="83.6576" gradientUnits="userSpaceOnUse">
<stop stop-color="#FC9A30"/>
<stop offset="0.73" stop-color="#F76016"/>
</linearGradient>
<linearGradient id="paint15_linear" x1="2.64271" y1="-8.16851" x2="192.786" y2="75.4815" gradientUnits="userSpaceOnUse">
<stop stop-color="#FC9A30"/>
<stop offset="0.73" stop-color="#F76016"/>
</linearGradient>
</defs>
</svg>
